<svg xmlns="http://www.w3.org/2000/svg" version="1.1" xmlns:xlink="http://www.w3.org/1999/xlink" xmlns:svgjs="http://svgjs.dev/svgjs" width="1000" height="623" viewBox="0 0 1000 623"><g transform="matrix(1,0,0,1,-0.6060606060606233,0.2522267206477409)"><svg viewBox="0 0 396 247" data-background-color="#ffffff" preserveAspectRatio="xMidYMid meet" height="623" width="1000" xmlns="http://www.w3.org/2000/svg" xmlns:xlink="http://www.w3.org/1999/xlink"><g id="tight-bounds" transform="matrix(1,0,0,1,0.2400000000000091,-0.09999999999999432)"><svg viewBox="0 0 395.52 247.2" height="247.2" width="395.52"><g><svg></svg></g><g><svg viewBox="0 0 395.52 247.2" height="247.2" width="395.52"><g transform="matrix(1,0,0,1,126.05182040816325,47.215199999999996)"><svg viewBox="0 0 143.41635918367348 152.7696" height="152.7696" width="143.41635918367348"><g><svg viewBox="0 0 143.41635918367348 152.7696" height="152.7696" width="143.41635918367348"><g><svg viewBox="0 0 143.41635918367348 152.7696" height="152.7696" width="143.41635918367348"><g><svg viewBox="0 0 143.41635918367348 152.7696" height="152.7696" width="143.41635918367348"><g><svg viewBox="0 0 143.41635918367348 152.7696" height="152.7696" width="143.41635918367348"><g><svg viewBox="0 0 143.41635918367348 152.7696" height="152.7696" width="143.41635918367348"><g transform="matrix(1,0,0,1,0,0)"><svg width="143.41635918367348" viewBox="0.20000000298023224 -34.29999923706055 32.20000076293945 34.29999923706055" height="152.7696" data-palette-color="#ffffff"><path d="M13.6-34.3L19-34.3 32.4 0 27.1 0 24.2-7.45 7.8-7.45 4.95 0 0.2 0 13.6-34.3ZM22.5-11.9L16.2-28.4 15.9-28.4 9.55-11.9 22.5-11.9Z" opacity="1" transform="matrix(1,0,0,1,0,0)" fill="#ffffff" class="undefined-text-0" data-fill-palette-color="primary" id="text-0"></path></svg></g></svg></g></svg></g></svg></g></svg></g></svg></g></svg></g><path d="M308.353 41.215L308.353 0 61.153 0 61.153 247.2 308.353 247.2 308.353 205.985 294.576 205.985 294.576 233.423 74.93 233.423 74.93 13.777 294.576 13.777 294.576 41.215Z" fill="#ffffff" stroke="transparent" data-fill-palette-color="primary"></path></svg></g><defs></defs></svg><rect width="395.52" height="247.2" fill="none" stroke="none" visibility="hidden"></rect></g></svg></g></svg>